<svg width="86" height="32" viewBox="0 0 86 32" fill="none" xmlns="http://www.w3.org/2000/svg">
<rect width="85.3333" height="32" fill="black"/>
<path d="M12.3388 11.5H16.7488C18.2588 11.5 19.3838 11.72 20.1238 12.16C20.8638 12.59 21.2338 13.365 21.2338 14.485C21.2338 15.725 20.7838 16.58 19.8838 17.05C19.0438 17.48 17.8688 17.695 16.3588 17.695H16.2388V21.715H18.1138V22H12.3388V21.715H13.3138V11.785H12.3388V11.5ZM16.2388 11.785V17.41H16.5538C17.1538 17.41 17.5688 17.205 17.7988 16.795C18.0288 16.385 18.1438 15.72 18.1438 14.8V14.08C18.1438 13.23 18.0338 12.635 17.8138 12.295C17.6038 11.955 17.2138 11.785 16.6438 11.785H16.2388ZM26.1615 19.045V17.77C26.1615 16.8 26.1065 16.095 25.9965 15.655C25.8965 15.205 25.6565 14.98 25.2765 14.98C25.0565 14.98 24.8765 15.045 24.7365 15.175C24.6065 15.295 24.5115 15.5 24.4515 15.79C24.3615 16.24 24.3165 16.925 24.3165 17.845V19.015C24.3165 20.105 24.3465 20.76 24.4065 20.98C24.4765 21.2 24.5465 21.38 24.6165 21.52C24.7265 21.76 24.9415 21.88 25.2615 21.88C25.6515 21.88 25.9065 21.655 26.0265 21.205C26.1165 20.885 26.1615 20.165 26.1615 19.045ZM25.2315 22.15C23.9815 22.15 23.0365 21.83 22.3965 21.19C21.7565 20.55 21.4365 19.635 21.4365 18.445C21.4365 17.245 21.7765 16.325 22.4565 15.685C23.1465 15.035 24.1115 14.71 25.3515 14.71C26.5915 14.71 27.5165 15.01 28.1265 15.61C28.7365 16.2 29.0415 17.105 29.0415 18.325C29.0415 20.875 27.7715 22.15 25.2315 22.15ZM34.471 15.28C34.101 15.28 33.776 15.52 33.496 16C33.216 16.48 33.076 17.05 33.076 17.71V21.73H34.141V22H29.461V21.73H30.286V15.13H29.461V14.86H33.076V16.3C33.206 15.79 33.456 15.4 33.826 15.13C34.196 14.85 34.616 14.71 35.086 14.71C35.556 14.71 35.936 14.845 36.226 15.115C36.526 15.375 36.676 15.75 36.676 16.24C36.676 16.72 36.566 17.09 36.346 17.35C36.126 17.61 35.786 17.74 35.326 17.74C34.876 17.74 34.541 17.59 34.321 17.29C34.111 16.99 34.086 16.575 34.246 16.045H34.786C35.036 15.535 34.931 15.28 34.471 15.28ZM37.6378 19.855V15.13H36.8128V14.86H37.6378V12.925L40.4278 12.235V14.86H42.3778V15.13H40.4278V20.185C40.4278 20.655 40.4728 21 40.5628 21.22C40.6628 21.44 40.8628 21.55 41.1628 21.55C41.4628 21.55 41.7228 21.4 41.9428 21.1C42.1728 20.8 42.3228 20.39 42.3928 19.87L42.6478 19.9C42.5678 20.59 42.3478 21.14 41.9878 21.55C41.6278 21.95 41.0328 22.15 40.2028 22.15C39.3728 22.15 38.7378 21.985 38.2978 21.655C37.8578 21.325 37.6378 20.725 37.6378 19.855ZM47.3361 10.66C46.9561 10.66 46.7061 10.805 46.5861 11.095C46.4661 11.375 46.4061 11.83 46.4061 12.46V14.86H48.3861V15.13H46.4061V21.73H48.2361V22H42.7911V21.73H43.6161V15.13H42.7461V14.86H43.6161V14.8C43.6161 13.36 43.8911 12.27 44.4411 11.53C44.9911 10.78 45.9111 10.405 47.2011 10.405C48.0511 10.405 48.6611 10.575 49.0311 10.915C49.4011 11.245 49.5861 11.63 49.5861 12.07C49.5861 12.51 49.4711 12.84 49.2411 13.06C49.0111 13.28 48.7061 13.39 48.3261 13.39C47.9461 13.39 47.6511 13.295 47.4411 13.105C47.2411 12.905 47.1411 12.68 47.1411 12.43C47.1411 12.17 47.1711 11.92 47.2311 11.68H47.8011C48.0011 11 47.8461 10.66 47.3361 10.66ZM53.0853 19.045V17.77C53.0853 16.8 53.0303 16.095 52.9203 15.655C52.8203 15.205 52.5803 14.98 52.2003 14.98C51.9803 14.98 51.8003 15.045 51.6603 15.175C51.5303 15.295 51.4353 15.5 51.3753 15.79C51.2853 16.24 51.2403 16.925 51.2403 17.845V19.015C51.2403 20.105 51.2703 20.76 51.3303 20.98C51.4003 21.2 51.4703 21.38 51.5403 21.52C51.6503 21.76 51.8653 21.88 52.1853 21.88C52.5753 21.88 52.8303 21.655 52.9503 21.205C53.0403 20.885 53.0853 20.165 53.0853 19.045ZM52.1553 22.15C50.9053 22.15 49.9603 21.83 49.3203 21.19C48.6803 20.55 48.3603 19.635 48.3603 18.445C48.3603 17.245 48.7003 16.325 49.3803 15.685C50.0703 15.035 51.0353 14.71 52.2753 14.71C53.5153 14.71 54.4403 15.01 55.0503 15.61C55.6603 16.2 55.9653 17.105 55.9653 18.325C55.9653 20.875 54.6953 22.15 52.1553 22.15ZM56.3249 10.75H59.9999V21.73H60.8399V22H56.3849V21.73H57.2099V11.02H56.3249V10.75ZM63.336 13.825C62.806 13.825 62.426 13.69 62.196 13.42C61.976 13.15 61.866 12.815 61.866 12.415C61.866 12.015 61.986 11.685 62.226 11.425C62.476 11.165 62.851 11.035 63.351 11.035C63.851 11.035 64.231 11.155 64.491 11.395C64.751 11.625 64.881 11.96 64.881 12.4C64.881 12.83 64.756 13.175 64.506 13.435C64.256 13.695 63.866 13.825 63.336 13.825ZM61.071 14.86H64.746V21.73H65.586V22H61.131V21.73H61.956V15.13H61.071V14.86ZM70.7367 19.045V17.77C70.7367 16.8 70.6817 16.095 70.5717 15.655C70.4717 15.205 70.2317 14.98 69.8517 14.98C69.6317 14.98 69.4517 15.045 69.3117 15.175C69.1817 15.295 69.0867 15.5 69.0267 15.79C68.9367 16.24 68.8917 16.925 68.8917 17.845V19.015C68.8917 20.105 68.9217 20.76 68.9817 20.98C69.0517 21.2 69.1217 21.38 69.1917 21.52C69.3017 21.76 69.5167 21.88 69.8367 21.88C70.2267 21.88 70.4817 21.655 70.6017 21.205C70.6917 20.885 70.7367 20.165 70.7367 19.045ZM69.8067 22.15C68.5567 22.15 67.6117 21.83 66.9717 21.19C66.3317 20.55 66.0117 19.635 66.0117 18.445C66.0117 17.245 66.3517 16.325 67.0317 15.685C67.7217 15.035 68.6867 14.71 69.9267 14.71C71.1667 14.71 72.0917 15.01 72.7017 15.61C73.3117 16.2 73.6167 17.105 73.6167 18.325C73.6167 20.875 72.3467 22.15 69.8067 22.15Z" fill="white"/>
</svg>
